<svg width="239" height="65" viewBox="0 0 239 65" fill="none" xmlns="http://www.w3.org/2000/svg">
<g clip-path="url(#clip0_126_1932)">
<path d="M58.8921 18.1153H57.7722C57.6287 18.1153 57.5138 18.0866 57.4133 18.0437C57.3128 18.0007 57.2267 17.9148 57.1405 17.7859L51.3978 10.5398C51.326 10.4539 51.2542 10.368 51.1824 10.2964C51.1106 10.2248 51.0245 10.1818 50.9383 10.1388C50.8522 10.0959 50.7373 10.0672 50.6225 10.0529C50.4933 10.0386 50.3497 10.0243 50.1774 10.0243H47.8372V18.1009H46.5308V0.257812H51.1106C53.1637 0.257812 54.7142 0.658782 55.7336 1.4464C56.7529 2.23402 57.2698 3.40829 57.2698 4.95488C57.2698 5.64226 57.1549 6.25803 56.9108 6.81653C56.6811 7.37502 56.3366 7.87623 55.8915 8.30584C55.4464 8.73545 54.9152 9.07914 54.2835 9.35122C53.6518 9.62331 52.9483 9.79516 52.1587 9.8954C52.3597 10.0243 52.5463 10.1961 52.7042 10.3966L58.8634 18.1153H58.8921ZM50.9527 9.07914C51.7423 9.07914 52.4602 8.9789 53.0919 8.79273C53.7236 8.60657 54.2548 8.33448 54.6855 7.97647C55.1162 7.61846 55.4464 7.20317 55.6761 6.70196C55.9058 6.20075 56.0207 5.64226 56.0207 5.02648C56.0207 3.75197 55.6044 2.80683 54.7716 2.20538C53.9389 1.5896 52.733 1.28888 51.1393 1.28888H47.866V9.09346H50.9671L50.9527 9.07914Z" fill="white"/>
<path d="M82.7823 9.17943C82.7823 10.5542 82.5813 11.8144 82.165 12.9314C81.7486 14.0483 81.1743 15.0078 80.4134 15.8097C79.6525 16.6117 78.7624 17.2131 77.7143 17.6571C76.6663 18.0867 75.5033 18.3015 74.2399 18.3015C72.9765 18.3015 71.8136 18.0867 70.7799 17.6571C69.7462 17.2275 68.8417 16.6117 68.0808 15.8097C67.3199 15.0078 66.7456 14.0627 66.3293 12.9314C65.9129 11.8144 65.7119 10.5542 65.7119 9.17943C65.7119 7.80467 65.9129 6.55881 66.3293 5.44182C66.7456 4.32483 67.3199 3.36537 68.0808 2.56343C68.8417 1.76149 69.7319 1.14572 70.7799 0.716109C71.828 0.286498 72.9765 0.057373 74.2399 0.057373C75.5033 0.057373 76.6663 0.272178 77.7143 0.701788C78.7624 1.1314 79.6669 1.74717 80.4134 2.54911C81.16 3.35105 81.7486 4.31051 82.165 5.4275C82.5813 6.54449 82.7823 7.80467 82.7823 9.16511V9.17943ZM81.4328 9.17943C81.4328 7.93356 81.2605 6.81657 80.9159 5.82847C80.5713 4.84037 80.0832 3.99547 79.4515 3.30809C78.8198 2.62071 78.0589 2.09086 77.1688 1.71853C76.2786 1.3462 75.3023 1.17436 74.2399 1.17436C73.1775 1.17436 72.2012 1.36052 71.3111 1.71853C70.421 2.09086 69.6601 2.60639 69.0284 3.30809C68.3967 3.99547 67.8942 4.84037 67.5496 5.82847C67.205 6.81657 67.0184 7.93356 67.0184 9.17943C67.0184 10.4253 67.1907 11.5566 67.5496 12.5447C67.8942 13.5328 68.3967 14.3777 69.0284 15.0651C69.6601 15.7525 70.421 16.2823 71.3111 16.6403C72.2012 16.9983 73.1775 17.1845 74.2399 17.1845C75.3023 17.1845 76.293 16.9983 77.1688 16.6403C78.0589 16.2823 78.8198 15.7525 79.4515 15.0651C80.0832 14.3777 80.5713 13.5328 80.9159 12.5447C81.2605 11.5566 81.4328 10.4396 81.4328 9.17943Z" fill="white"/>
<path d="M100.656 2.43439C100.585 2.57759 100.47 2.64919 100.326 2.64919C100.211 2.64919 100.082 2.57759 99.8954 2.42007C99.7231 2.26254 99.4934 2.0907 99.1919 1.90454C98.8904 1.71837 98.5315 1.54653 98.0864 1.37468C97.6414 1.20284 97.0958 1.13124 96.4497 1.13124C95.8037 1.13124 95.2294 1.21716 94.7413 1.40332C94.2531 1.58949 93.8368 1.84725 93.5066 2.1623C93.1764 2.47735 92.9179 2.84968 92.7456 3.27929C92.5734 3.69458 92.4872 4.13851 92.4872 4.59676C92.4872 5.19821 92.6164 5.69943 92.8749 6.10039C93.1333 6.50136 93.4779 6.83073 93.8942 7.10282C94.3106 7.3749 94.7987 7.61835 95.3299 7.80451C95.8611 7.99068 96.421 8.17684 96.9809 8.36301C97.5409 8.54917 98.1008 8.74966 98.632 8.97878C99.1632 9.20791 99.6513 9.47999 100.068 9.82368C100.484 10.1531 100.829 10.5683 101.087 11.0696C101.345 11.5708 101.475 12.1722 101.475 12.9026C101.475 13.6329 101.345 14.3632 101.087 15.022C100.829 15.6807 100.455 16.2535 99.9672 16.7404C99.479 17.2273 98.8761 17.6139 98.1726 17.9004C97.4691 18.1868 96.6507 18.33 95.7463 18.33C94.569 18.33 93.5496 18.1152 92.7026 17.6999C91.8555 17.2846 91.109 16.7118 90.4629 15.9957L90.8218 15.4373C90.9223 15.3084 91.0372 15.2511 91.1807 15.2511C91.2525 15.2511 91.353 15.2941 91.4679 15.4086C91.5827 15.5089 91.7263 15.6377 91.8986 15.7809C92.0709 15.9241 92.2719 16.0817 92.5016 16.2535C92.7313 16.4254 93.0184 16.5829 93.3199 16.7261C93.6358 16.8693 93.9947 16.9982 94.3967 17.0984C94.7987 17.1987 95.2581 17.2559 95.775 17.2559C96.4784 17.2559 97.1102 17.1557 97.6701 16.9409C98.23 16.7261 98.7038 16.4397 99.0771 16.0673C99.4647 15.695 99.7518 15.2511 99.9528 14.7499C100.154 14.2343 100.254 13.6902 100.254 13.1174C100.254 12.4873 100.125 11.9717 99.8667 11.5564C99.6083 11.1555 99.2637 10.8118 98.8473 10.5397C98.431 10.2676 97.9429 10.0385 97.4116 9.85232C96.8804 9.66616 96.3205 9.47999 95.7606 9.30815C95.2007 9.13631 94.6408 8.93582 94.1096 8.72102C93.5784 8.50621 93.0902 8.2198 92.6739 7.87612C92.2575 7.53243 91.9129 7.11714 91.6545 6.60161C91.3961 6.10039 91.2669 5.45598 91.2669 4.68268C91.2669 4.08123 91.3817 3.50841 91.6115 2.94992C91.8412 2.39143 92.1714 1.90454 92.6164 1.47493C93.0615 1.04532 93.5927 0.715948 94.2388 0.458182C94.8848 0.200416 95.617 0.0715332 96.4497 0.0715332C97.3829 0.0715332 98.2156 0.214737 98.9478 0.515464C99.68 0.816191 100.355 1.26012 100.972 1.86158L100.671 2.44871L100.656 2.43439Z" fill="white"/>
<path d="M121.316 17.0412L121.288 18.1153H110.563V0.257812H121.288V1.33184H111.855V8.54929H119.694V9.59467H111.855V17.0412H121.302H121.316Z" fill="white"/>
<path d="M144.115 0.257812V18.1153H143.512C143.397 18.1153 143.311 18.1009 143.239 18.058C143.168 18.015 143.096 17.9577 143.024 17.8575L131.395 2.3629C131.424 2.62067 131.438 2.84979 131.438 3.07892V18.1153H130.304V0.257812H130.95C131.065 0.257812 131.165 0.272133 131.223 0.300773C131.28 0.329414 131.352 0.401016 131.438 0.501258L143.038 15.9672C143.01 15.7095 142.995 15.4803 142.995 15.2512V0.257812H144.115Z" fill="white"/>
<path d="M163.152 2.43439C163.081 2.57759 162.966 2.64919 162.822 2.64919C162.707 2.64919 162.578 2.57759 162.391 2.42007C162.219 2.26254 161.99 2.0907 161.688 1.90454C161.387 1.71837 161.028 1.54653 160.583 1.37468C160.137 1.21716 159.592 1.13124 158.946 1.13124C158.3 1.13124 157.725 1.21716 157.237 1.40332C156.749 1.58949 156.333 1.84725 156.003 2.1623C155.672 2.47735 155.414 2.84968 155.242 3.27929C155.069 3.69458 154.983 4.13851 154.983 4.59676C154.983 5.19821 155.113 5.69943 155.371 6.10039C155.629 6.50136 155.974 6.83073 156.39 7.10282C156.807 7.3749 157.295 7.61835 157.826 7.80451C158.357 7.99068 158.917 8.17684 159.477 8.36301C160.037 8.54917 160.597 8.74966 161.128 8.97878C161.659 9.20791 162.147 9.47999 162.564 9.82368C162.98 10.1531 163.325 10.5683 163.583 11.0696C163.842 11.5708 163.971 12.1722 163.971 12.9026C163.971 13.6329 163.842 14.3632 163.583 15.022C163.325 15.6807 162.951 16.2535 162.463 16.7404C161.975 17.2273 161.372 17.6139 160.669 17.9004C159.965 18.1868 159.147 18.33 158.242 18.33C157.065 18.33 156.046 18.1152 155.199 17.6999C154.352 17.2846 153.605 16.7118 152.959 15.9957L153.318 15.4373C153.418 15.3084 153.533 15.2511 153.677 15.2511C153.749 15.2511 153.849 15.2941 153.964 15.4086C154.079 15.5089 154.222 15.6377 154.395 15.7809C154.567 15.9241 154.768 16.0817 154.998 16.2535C155.227 16.4254 155.515 16.5829 155.816 16.7261C156.132 16.8693 156.491 16.9982 156.893 17.0984C157.295 17.1987 157.754 17.2559 158.271 17.2559C158.975 17.2559 159.606 17.1557 160.166 16.9409C160.726 16.7261 161.2 16.4397 161.573 16.0673C161.961 15.695 162.248 15.2511 162.449 14.7499C162.65 14.2487 162.75 13.6902 162.75 13.1174C162.75 12.4873 162.621 11.9717 162.363 11.5564C162.104 11.1555 161.76 10.8118 161.343 10.5397C160.927 10.2676 160.439 10.0385 159.908 9.85232C159.377 9.66616 158.817 9.47999 158.257 9.30815C157.697 9.13631 157.137 8.93582 156.606 8.72102C156.074 8.50621 155.586 8.2198 155.17 7.87612C154.754 7.53243 154.409 7.11714 154.151 6.60161C153.892 6.10039 153.763 5.45598 153.763 4.68268C153.763 4.08123 153.878 3.50841 154.108 2.94992C154.337 2.39143 154.667 1.90454 155.113 1.47493C155.543 1.04532 156.089 0.715948 156.735 0.458182C157.381 0.200416 158.113 0.0715332 158.946 0.0715332C159.879 0.0715332 160.712 0.214737 161.444 0.515464C162.176 0.816191 162.851 1.26012 163.468 1.86158L163.167 2.44871L163.152 2.43439Z" fill="white"/>
<path d="M184.702 1.36048H178.414V18.1153H177.107V1.36048H170.776V0.257812H184.688V1.36048H184.702Z" fill="white"/>
<path d="M203.524 17.0412L203.495 18.1153H192.771V0.257812H203.495V1.33184H194.063V8.54929H201.902V9.59467H194.063V17.0412H203.509H203.524Z" fill="white"/>
<path d="M213.818 18.1153H212.511V0.257812H213.818V18.1153Z" fill="white"/>
<path d="M237.981 0.257812V18.1153H237.378C237.263 18.1153 237.177 18.1009 237.105 18.058C237.033 18.015 236.961 17.9577 236.89 17.8575L225.261 2.3629C225.289 2.62067 225.304 2.84979 225.304 3.07892V18.1153H224.169V0.257812H224.815C224.93 0.257812 225.031 0.272133 225.088 0.300773C225.146 0.329414 225.217 0.401016 225.304 0.501258L236.904 15.9672C236.875 15.7095 236.861 15.4803 236.861 15.2512V0.257812H237.981Z" fill="white"/>
<path d="M59.3086 44.9373C59.5096 44.9373 59.6819 45.0089 59.8255 45.1664L61.2468 46.6987C60.4572 47.6725 59.4952 48.4172 58.3467 48.9327C57.1981 49.4482 55.8199 49.706 54.2119 49.706C52.7762 49.706 51.4841 49.4625 50.3355 48.9757C49.187 48.4888 48.2107 47.8014 47.3923 46.9279C46.574 46.0543 45.9567 45.0089 45.5259 43.806C45.0952 42.6031 44.8799 41.2713 44.8799 39.8393C44.8799 38.4072 45.1096 37.0611 45.5834 35.8439C46.0428 34.641 46.7032 33.5956 47.5503 32.7221C48.3973 31.8485 49.4023 31.1755 50.5652 30.6886C51.7425 30.2017 53.0346 29.9583 54.456 29.9583C55.8773 29.9583 57.1264 30.1874 58.2175 30.6599C59.3086 31.1182 60.2418 31.734 61.0171 32.4786L59.8111 34.1541C59.7393 34.2544 59.6532 34.3546 59.5383 34.4405C59.4235 34.5264 59.2655 34.5551 59.0789 34.5551C58.9497 34.5551 58.8061 34.5121 58.6625 34.4405C58.519 34.3689 58.361 34.2687 58.1888 34.1541C58.0165 34.0395 57.8155 33.925 57.6001 33.7818C57.3704 33.6529 57.112 33.524 56.8249 33.4095C56.5234 33.2949 56.1932 33.209 55.8055 33.123C55.4179 33.0514 54.9728 33.0085 54.456 33.0085C53.5945 33.0085 52.7906 33.166 52.0727 33.4667C51.3549 33.7818 50.7375 34.2257 50.2207 34.7985C49.7038 35.3857 49.3018 36.0874 49.0147 36.9323C48.7275 37.7772 48.584 38.7366 48.584 39.8106C48.584 40.8847 48.7419 41.8584 49.0434 42.7177C49.3449 43.5626 49.7756 44.2786 50.2924 44.8514C50.8237 45.4242 51.441 45.8681 52.1589 46.1832C52.8767 46.4839 53.6376 46.6414 54.4703 46.6414C54.9585 46.6414 55.4035 46.6128 55.8055 46.5555C56.2075 46.4982 56.5664 46.4123 56.911 46.2978C57.2412 46.1832 57.5571 46.0257 57.8586 45.8538C58.1601 45.6677 58.4615 45.4385 58.7487 45.1808C58.8348 45.0948 58.9353 45.0376 59.0358 44.9803C59.1363 44.9373 59.2368 44.9087 59.3373 44.9087L59.3086 44.9373Z" fill="white"/>
<path d="M85.4236 30.1729V49.5053H81.8057V41.0563H72.7034V49.5053H69.0854V30.1729H72.7034V38.493H81.8057V30.1729H85.4236Z" fill="white"/>
<path d="M98.7185 49.4911H95.1006V30.1587H98.7185V49.4911Z" fill="white"/>
<path d="M121.718 44.9373C121.919 44.9373 122.092 45.0089 122.235 45.1664L123.656 46.6987C122.867 47.6725 121.905 48.4172 120.756 48.9327C119.608 49.4482 118.23 49.706 116.622 49.706C115.186 49.706 113.894 49.4625 112.745 48.9757C111.597 48.4888 110.62 47.8014 109.802 46.9279C108.984 46.0543 108.366 45.0089 107.936 43.806C107.505 42.6031 107.29 41.2713 107.29 39.8393C107.29 38.4072 107.519 37.0611 107.993 35.8439C108.452 34.641 109.113 33.5956 109.96 32.7221C110.807 31.8485 111.812 31.1755 112.975 30.6886C114.152 30.2017 115.444 29.9583 116.866 29.9583C118.287 29.9583 119.536 30.1874 120.627 30.6599C121.718 31.1182 122.651 31.734 123.427 32.4786L122.221 34.1541C122.149 34.2544 122.063 34.3546 121.948 34.4405C121.833 34.5264 121.675 34.5551 121.489 34.5551C121.359 34.5551 121.216 34.5121 121.072 34.4405C120.929 34.3689 120.771 34.2687 120.598 34.1541C120.426 34.0395 120.225 33.925 120.01 33.7818C119.78 33.6529 119.522 33.524 119.235 33.4095C118.933 33.2949 118.603 33.209 118.215 33.123C117.828 33.0514 117.382 33.0085 116.866 33.0085C116.004 33.0085 115.2 33.166 114.482 33.4667C113.765 33.7818 113.147 34.2257 112.63 34.7985C112.113 35.3857 111.711 36.0874 111.424 36.9323C111.137 37.7772 110.994 38.7366 110.994 39.8106C110.994 40.8847 111.152 41.8584 111.453 42.7177C111.755 43.5626 112.185 44.2786 112.702 44.8514C113.233 45.4242 113.851 45.8681 114.569 46.1832C115.286 46.4839 116.047 46.6414 116.88 46.6414C117.368 46.6414 117.813 46.6128 118.215 46.5555C118.617 46.4982 118.976 46.4123 119.321 46.2978C119.651 46.1832 119.967 46.0257 120.268 45.8538C120.57 45.6677 120.871 45.4385 121.158 45.1808C121.244 45.0948 121.345 45.0376 121.445 44.9803C121.546 44.9373 121.646 44.9087 121.747 44.9087L121.718 44.9373Z" fill="white"/>
<path d="M148.106 49.4911H145.321C145.005 49.4911 144.761 49.4195 144.56 49.262C144.359 49.1045 144.216 48.9183 144.115 48.6749L142.665 44.7368H134.64L133.189 48.6749C133.118 48.8754 132.974 49.0615 132.773 49.2334C132.572 49.4052 132.314 49.4911 132.012 49.4911H129.198L136.822 30.1587H140.497L148.106 49.4911ZM141.732 42.2021L139.377 35.7723C139.262 35.4859 139.148 35.1422 139.018 34.7555C138.889 34.3689 138.774 33.9393 138.645 33.481C138.53 33.9393 138.401 34.3546 138.286 34.7555C138.157 35.1565 138.042 35.5002 137.927 35.7866L135.587 42.1878H141.746L141.732 42.2021Z" fill="white"/>
<path d="M167.115 33.1228H161.272V49.491H157.668V33.1228H151.825V30.1729H167.115V33.1228Z" fill="white"/>
<path d="M178.643 33.0228V38.3786H185.42V41.1424H178.643V46.6128H187.243V49.4911H175.025V30.1587H187.243V33.0228H178.643Z" fill="white"/>
<path d="M207.142 46.5268V49.4911H195.786V30.1587H199.389V46.5125H207.128L207.142 46.5268Z" fill="white"/>
<path d="M226.423 46.5268V49.4911H215.067V30.1587H218.67V46.5125H226.409L226.423 46.5268Z" fill="white"/>
<path d="M237.981 49.4911H234.363V30.1587H237.981V49.4911Z" fill="white"/>
<path d="M217.177 56.8088C218.125 56.8088 218.843 57.0093 219.331 57.4246C219.819 57.8399 220.063 58.427 220.063 59.2003C220.063 59.5583 219.991 59.8877 219.862 60.1741C219.733 60.4748 219.532 60.7326 219.288 60.9474C219.044 61.1622 218.742 61.3341 218.383 61.4486C218.025 61.5632 217.623 61.6348 217.192 61.6348H215.684V64.8998H215.096V56.8088H217.192H217.177ZM217.177 61.1765C217.536 61.1765 217.852 61.1336 218.139 61.0333C218.427 60.9331 218.656 60.8042 218.857 60.6181C219.058 60.4462 219.202 60.2314 219.317 60.0023C219.417 59.7588 219.475 59.5011 219.475 59.2147C219.475 58.5989 219.288 58.112 218.9 57.7826C218.513 57.4533 217.953 57.2814 217.192 57.2814H215.684V61.1765H217.192H217.177Z" fill="#A3934E"/>
<path d="M226.136 64.3986V64.8998H221.7V56.8088H222.288V64.3986H226.136Z" fill="#A3934E"/>
<path d="M231.936 64.3986V64.8998H227.5V56.8088H228.089V64.3986H231.936Z" fill="#A3934E"/>
<path d="M238.67 63.5392C238.67 63.5392 238.742 63.5392 238.77 63.5822L239 63.8256C238.828 64.0118 238.656 64.1693 238.455 64.3125C238.254 64.4557 238.038 64.5703 237.808 64.6848C237.579 64.7994 237.32 64.871 237.033 64.914C236.746 64.9569 236.445 64.9999 236.1 64.9999C235.54 64.9999 235.023 64.8997 234.549 64.6992C234.076 64.4987 233.674 64.2266 233.343 63.8686C233.013 63.5106 232.74 63.0666 232.568 62.5654C232.382 62.0499 232.295 61.4914 232.295 60.8613C232.295 60.2312 232.396 59.6871 232.583 59.1858C232.769 58.6846 233.042 58.2407 233.387 57.8827C233.731 57.5247 234.147 57.2383 234.621 57.0378C235.095 56.8373 235.641 56.7371 236.215 56.7371C236.789 56.7371 237.263 56.823 237.694 56.9948C238.124 57.1667 238.512 57.4101 238.857 57.7252L238.684 57.9829C238.684 57.9829 238.612 58.0545 238.541 58.0545C238.498 58.0545 238.426 58.0116 238.311 57.9257C238.21 57.8397 238.067 57.7538 237.88 57.6536C237.694 57.5533 237.464 57.4531 237.191 57.3815C236.918 57.2956 236.588 57.2526 236.2 57.2526C235.712 57.2526 235.267 57.3385 234.851 57.5104C234.449 57.6822 234.09 57.9113 233.803 58.2264C233.516 58.5414 233.286 58.9138 233.114 59.372C232.941 59.8303 232.87 60.3315 232.87 60.89C232.87 61.4485 232.956 61.9783 233.114 62.4222C233.286 62.8662 233.501 63.2528 233.803 63.5679C234.09 63.8829 234.435 64.112 234.837 64.2839C235.239 64.4557 235.655 64.5273 236.114 64.5273C236.402 64.5273 236.66 64.513 236.89 64.47C237.119 64.4271 237.32 64.3698 237.521 64.2982C237.708 64.2266 237.895 64.1264 238.053 64.0118C238.21 63.8972 238.383 63.7683 238.541 63.6251C238.555 63.6251 238.584 63.5965 238.598 63.5822C238.612 63.5822 238.641 63.5822 238.656 63.5822L238.67 63.5392Z" fill="#A3934E"/>
<path d="M30.3362 44.5218C30.25 44.4359 30.1352 44.3786 30.006 44.3786C29.9342 44.3786 29.8768 44.3929 29.805 44.4216C29.7332 44.4502 29.6758 44.4932 29.604 44.5505C29.0584 45.066 28.4985 45.5099 27.9242 45.8823C27.3643 46.2689 26.7469 46.584 26.0865 46.8417C25.4261 47.0995 24.7083 47.3 23.933 47.4289C23.1577 47.5577 22.2676 47.6293 21.2626 47.6293C19.6833 47.6293 18.2189 47.3429 16.855 46.7701C15.4911 46.1973 14.3138 45.381 13.3232 44.307C12.3182 43.233 11.5429 41.9298 10.9687 40.3832C10.3944 38.8367 10.1072 37.0753 10.1072 35.1134C10.1072 33.1515 10.3944 31.4474 10.9543 29.9008C11.5142 28.3542 12.3039 27.0367 13.3088 25.9627C13.7108 25.5331 14.1559 25.1464 14.6297 24.7884C15.1035 24.4304 15.6203 24.1153 16.1659 23.8289C16.4099 23.7001 16.654 23.5855 16.9124 23.4709C18.3051 22.8981 19.8556 22.6117 21.5354 22.6117C22.8562 22.6117 23.9761 22.7549 24.9093 23.0413C25.8425 23.3277 26.6321 23.6428 27.2638 24.0008C27.8955 24.3445 28.3836 24.6595 28.7426 24.9602C29.1015 25.2467 29.3599 25.3899 29.5178 25.3899C29.7475 25.3899 29.9055 25.3183 30.006 25.1607L30.6233 24.2729C29.4173 23.1988 28.0678 22.3683 26.6034 21.7811C25.139 21.194 23.4448 20.8933 21.5354 20.8933C19.6259 20.8933 17.7164 21.237 16.051 21.9243C15.6921 22.0675 15.3619 22.2394 15.0173 22.4112L9.97804 16.096C9.73397 15.7666 9.44683 15.5088 9.13098 15.3083C10.3513 15.1651 11.4568 14.8787 12.4331 14.4634C13.4093 14.0482 14.242 13.504 14.9312 12.8452C15.6203 12.1865 16.1515 11.4132 16.5248 10.5397C16.8981 9.66613 17.0704 8.69235 17.0704 7.63264C17.0704 5.24114 16.2664 3.42246 14.6728 2.17659C13.0935 0.973685 10.6959 0.35791 7.49429 0.35791H0.358887V28.168H2.38322V15.5947H6.02988C6.30266 15.5947 6.53237 15.5947 6.73337 15.6377C6.92001 15.6663 7.09229 15.7093 7.2215 15.7666C7.36507 15.8239 7.47993 15.9098 7.59478 16.01C7.70964 16.1103 7.81014 16.2392 7.92499 16.3824L13.4955 23.4137C12.8925 23.8576 12.3182 24.3302 11.8014 24.8886C10.6241 26.1345 9.70526 27.6381 9.04484 29.3852C8.38442 31.1323 8.05421 33.0512 8.05421 35.1706C8.05421 37.2901 8.37006 39.2663 9.01612 41.0277C9.64783 42.7891 10.5523 44.2784 11.7009 45.5243C12.8638 46.7558 14.242 47.7153 15.85 48.3883C17.458 49.0614 19.2239 49.4051 21.1621 49.4051C22.325 49.4051 23.3731 49.3048 24.3493 49.1187C25.3256 48.9325 26.2014 48.6604 27.0054 48.3167C27.8094 47.973 28.5559 47.5434 29.2307 47.0565C29.9055 46.5696 30.5372 46.0111 31.1115 45.3954L30.3218 44.5505L30.3362 44.5218ZM7.2215 14.0911H2.38322V1.94747H7.49429C9.97804 1.94747 11.8732 2.42004 13.1653 3.3795C14.4574 4.33896 15.1035 5.79964 15.1035 7.77584C15.1035 8.74963 14.9312 9.62317 14.5723 10.3965C14.2133 11.1698 13.6965 11.8285 13.0217 12.387C12.3469 12.9312 11.5142 13.3608 10.538 13.6615C9.56169 13.9622 8.4562 14.1054 7.2215 14.1054V14.0911Z" fill="#A3934E" stroke="#A3934E" stroke-width="0.5" stroke-miterlimit="10"/>
</g>
<defs>
<clipPath id="clip0_126_1932">
<rect width="239" height="65" fill="white"/>
</clipPath>
</defs>
</svg>
