<svg width="33" height="52" viewBox="0 0 33 52" fill="none" xmlns="http://www.w3.org/2000/svg">
<g clip-path="url(#clip0_126_1896)">
<path d="M31.6808 46.5499C31.5908 46.4601 31.4709 46.4002 31.3359 46.4002C31.261 46.4002 31.201 46.4152 31.126 46.4451C31.0511 46.475 30.9911 46.52 30.9161 46.5799C30.3464 47.1189 29.7616 47.583 29.1619 47.9723C28.5772 48.3766 27.9325 48.706 27.2428 48.9755C26.5531 49.245 25.8034 49.4546 24.9938 49.5894C24.1842 49.7241 23.2546 49.799 22.2051 49.799C20.5558 49.799 19.0265 49.4995 17.6022 48.9006C16.1778 48.3017 14.9484 47.4483 13.9138 46.3253C12.8643 45.2024 12.0547 43.8399 11.455 42.2228C10.8552 40.6058 10.5554 38.7641 10.5554 36.7129C10.5554 34.6616 10.8552 32.8799 11.44 31.2628C12.0247 29.6458 12.8493 28.2683 13.8989 27.1454C14.3187 26.6962 14.7835 26.2919 15.2782 25.9176C15.773 25.5433 16.3128 25.2139 16.8825 24.9144C17.1374 24.7797 17.3923 24.6599 17.6621 24.5401C19.1165 23.9412 20.7357 23.6418 22.4899 23.6418C23.8693 23.6418 25.0388 23.7915 26.0133 24.0909C26.9879 24.3904 27.8125 24.7198 28.4722 25.0941C29.1319 25.4535 29.6417 25.7828 30.0165 26.0973C30.3914 26.3967 30.6612 26.5465 30.8262 26.5465C31.066 26.5465 31.231 26.4716 31.3359 26.3069L31.9806 25.3786C30.7212 24.2556 29.3118 23.3872 27.7825 22.7733C26.2532 22.1595 24.484 21.845 22.4899 21.845C20.4959 21.845 18.5018 22.2044 16.7626 22.9231C16.3877 23.0728 16.0429 23.2525 15.683 23.4321L10.4204 16.8292C10.1655 16.4848 9.86569 16.2153 9.53584 16.0057C10.8103 15.856 11.9647 15.5565 12.9843 15.1223C14.0038 14.6881 14.8734 14.1192 15.5931 13.4304C16.3128 12.7417 16.8675 11.9332 17.2573 11.0198C17.6472 10.1065 17.8271 9.08835 17.8271 7.98037C17.8271 5.47994 16.9874 3.57841 15.3232 2.27579C13.674 1.01809 11.1701 0.374268 7.82661 0.374268H0.375V29.4511H2.48904V16.3052H6.29731C6.58218 16.3052 6.82207 16.3052 7.03197 16.3501C7.22689 16.38 7.4068 16.4249 7.54174 16.4848C7.69167 16.5447 7.81162 16.6346 7.93157 16.7394C8.05151 16.8442 8.15646 16.9789 8.27641 17.1287L14.0938 24.4802C13.464 24.9444 12.8643 25.4385 12.3246 26.0224C11.0951 27.325 10.1356 28.8972 9.44588 30.7238C8.75619 32.5505 8.41135 34.5568 8.41135 36.7728C8.41135 38.9887 8.7412 41.0549 9.41589 42.8966C10.0756 44.7382 11.0202 46.2954 12.2196 47.598C13.4341 48.8856 14.8734 49.8888 16.5526 50.5925C18.2319 51.2962 20.076 51.6556 22.1001 51.6556C23.3146 51.6556 24.4091 51.5508 25.4286 51.3561C26.4481 51.1615 27.3627 50.877 28.2024 50.5177C29.042 50.1583 29.8216 49.7091 30.5263 49.2001C31.231 48.691 31.8907 48.1071 32.4904 47.4632L31.6658 46.5799L31.6808 46.5499ZM7.54174 14.733H2.48904V2.03623H7.82661C10.4204 2.03623 12.3995 2.53033 13.7489 3.5335C15.0983 4.53666 15.773 6.06387 15.773 8.1301C15.773 9.14824 15.5931 10.0616 15.2183 10.8701C14.8434 11.6786 14.3037 12.3674 13.599 12.9513C12.8943 13.5203 12.0247 13.9694 11.0052 14.2839C9.98563 14.5983 8.83116 14.748 7.54174 14.748V14.733Z" fill="#A3934E" stroke="#A3934E" stroke-width="0.5" stroke-miterlimit="10"/>
</g>
<defs>
<clipPath id="clip0_126_1896">
<rect width="33" height="52" fill="white"/>
</clipPath>
</defs>
</svg>
