<svg width="25" height="24" viewBox="0 0 25 24" fill="none" xmlns="http://www.w3.org/2000/svg">
<path d="M7.02847 0C3.15269 0 0 3.09951 0 6.90737V16.7723C0 20.5792 3.15561 23.6758 7.0324 23.6758H17.0759C20.9517 23.6758 24.1043 20.5763 24.1043 16.7684V6.90352C24.1043 3.09665 20.9487 0 17.072 0H7.02847ZM19.0826 3.94597C19.637 3.94597 20.087 4.38792 20.087 4.93246C20.087 5.47701 19.637 5.91895 19.0826 5.91895C18.5282 5.91895 18.0783 5.47701 18.0783 4.93246C18.0783 4.38792 18.5282 3.94597 19.0826 3.94597ZM12.0522 5.91895C15.3756 5.91895 18.0783 8.5736 18.0783 11.8379C18.0783 15.1022 15.3756 17.7569 12.0522 17.7569C8.72879 17.7569 6.02609 15.1022 6.02609 11.8379C6.02609 8.5736 8.72879 5.91895 12.0522 5.91895ZM12.0522 7.89194C10.9867 7.89194 9.96486 8.30767 9.21145 9.04769C8.45804 9.7877 8.03478 10.7914 8.03478 11.8379C8.03478 12.8844 8.45804 13.8881 9.21145 14.6281C9.96486 15.3681 10.9867 15.7839 12.0522 15.7839C13.1177 15.7839 14.1395 15.3681 14.8929 14.6281C15.6463 13.8881 16.0696 12.8844 16.0696 11.8379C16.0696 10.7914 15.6463 9.7877 14.8929 9.04769C14.1395 8.30767 13.1177 7.89194 12.0522 7.89194Z" fill="#A3934E"/>
</svg>
