<svg width="22" height="23" viewBox="0 0 22 23" fill="none" xmlns="http://www.w3.org/2000/svg">
<path d="M19.9209 0H1.99209C0.891462 0 0 0.904801 0 2.0219V20.219C0 21.3361 0.891462 22.2409 1.99209 22.2409H19.9209C21.0216 22.2409 21.913 21.3361 21.913 20.219V2.0219C21.913 0.904801 21.0216 0 19.9209 0ZM6.92651 18.1971H3.98817V8.60117H6.92651V18.1971ZM5.42746 7.22931C4.48022 7.22931 3.71426 6.44987 3.71426 5.49047C3.71426 4.53108 4.48122 3.75265 5.42746 3.75265C6.37172 3.75265 7.13967 4.53209 7.13967 5.49047C7.13967 6.44987 6.37172 7.22931 5.42746 7.22931ZM17.9328 18.1971H14.9965V13.5306C14.9965 12.4175 14.9766 10.986 13.4696 10.986C11.9406 10.986 11.7055 12.1981 11.7055 13.4497V18.1971H8.7692V8.60117H11.588V9.91237H11.6279C12.0203 9.1582 12.9785 8.36259 14.4078 8.36259C17.383 8.36259 17.9328 10.3501 17.9328 12.9341V18.1971Z" fill="#A3934E"/>
</svg>
