<svg width="20" height="20" viewBox="0 0 20 20" fill="none" xmlns="http://www.w3.org/2000/svg">
<path d="M10.7358 18.193C10.4241 18.0545 10.1173 17.9054 9.81579 17.746C8.3138 16.8969 6.93446 15.8473 5.71579 14.626C4.13389 13.1369 2.83461 11.3738 1.88079 9.42195C1.37055 8.37301 1.0258 7.25139 0.85879 6.09695C0.63232 4.93096 0.76122 3.72383 1.22879 2.63195C1.51779 2.16195 1.86579 1.73195 2.26379 1.35295C2.42529 1.17179 2.62176 1.02516 2.84139 0.921881C3.06101 0.8186 3.29925 0.760798 3.54179 0.751953C4.04679 0.827953 4.50379 1.09195 4.81979 1.49395C5.50979 2.26095 6.24979 2.95095 6.97879 3.67995C7.26579 3.92595 7.44479 4.27495 7.47679 4.65195C7.46479 4.96895 7.34279 5.27195 7.13179 5.50895C6.88979 5.81595 6.59579 6.09695 6.31479 6.39095C6.14537 6.55474 6.0158 6.75522 5.93605 6.97696C5.8563 7.1987 5.8285 7.43578 5.85479 7.66995C6.0312 8.2175 6.33285 8.71638 6.73579 9.12695C7.22179 9.79195 7.70679 10.407 8.25579 11.058C9.24324 12.1984 10.4136 13.1666 11.7188 13.923C11.8993 14.059 12.1127 14.1449 12.3372 14.1718C12.5616 14.1986 12.7892 14.1656 12.9968 14.076C13.4313 13.834 13.8169 13.5132 14.1338 13.13C14.4088 12.795 14.8028 12.58 15.2328 12.529C15.6158 12.549 15.9768 12.713 16.2428 12.989C16.5868 13.283 16.8808 13.629 17.2008 13.948C17.5198 14.268 17.7758 14.498 18.0438 14.792C18.3651 15.0753 18.6675 15.378 18.9508 15.7C19.1708 15.984 19.2748 16.34 19.2448 16.697C19.1308 17.1243 18.8847 17.5047 18.5418 17.784C18.0596 18.2857 17.4737 18.6762 16.8249 18.928C16.1762 19.1799 15.4802 19.287 14.7858 19.242C13.3799 19.1622 12.0036 18.8057 10.7358 18.193Z" stroke="#A3934E" stroke-width="1.5" stroke-miterlimit="10" stroke-linecap="round"/>
</svg>
